<svg xmlns="http://www.w3.org/2000/svg" version="1.1" xmlns:xlink="http://www.w3.org/1999/xlink" xmlns:svgjs="http://svgjs.dev/svgjs" width="2000" height="1247" viewBox="0 0 2000 1247"><g transform="matrix(1,0,0,1,-1.2121212121212466,0.504858299595071)"><svg viewBox="0 0 396 247" data-background-color="#fbeaab" preserveAspectRatio="xMidYMid meet" height="1247" width="2000" xmlns="http://www.w3.org/2000/svg" xmlns:xlink="http://www.w3.org/1999/xlink"><g id="tight-bounds" transform="matrix(1,0,0,1,0.2400000000000091,-0.09999999999999432)"><svg viewBox="0 0 395.52 247.2" height="247.2" width="395.52"><g><svg></svg></g><g><svg viewBox="0 0 395.52 247.2" height="247.2" width="395.52"><g><path xmlns="http://www.w3.org/2000/svg" d="M55.039 247.2l40.697-70.489v3.391l-37.706 65.309h279.46l-37.706-65.309v-3.391l40.697 70.489zM197.76 0l26.403 45.732-1.958 0-24.445-42.341-24.445 42.341-1.958 0z" fill="#ffffff" fill-rule="nonzero" stroke="none" stroke-width="1" stroke-linecap="butt" stroke-linejoin="miter" stroke-miterlimit="10" stroke-dasharray="" stroke-dashoffset="0" font-family="none" font-weight="none" font-size="none" text-anchor="none" style="mix-blend-mode: normal" data-fill-palette-color="tertiary"></path></g><g transform="matrix(1,0,0,1,117.98394923391493,67.97999999999999)"><svg viewBox="0 0 159.55210153217013 111.24" height="111.24" width="159.55210153217013"><g><svg viewBox="0 0 395.52 275.75722524174245" height="111.24" width="159.55210153217013"><g transform="matrix(1,0,0,1,0,204.56162817029585)"><svg viewBox="0 0 395.52 71.1955970714466" height="71.1955970714466" width="395.52"><g id="textblocktransform"><svg viewBox="0 0 395.52 71.1955970714466" height="71.1955970714466" width="395.52" id="textblock"><g><svg viewBox="0 0 395.52 71.1955970714466" height="71.1955970714466" width="395.52"><g transform="matrix(1,0,0,1,0,0)"><svg width="395.52" viewBox="1.6500000953674316 -35.150001525878906 198.04000854492188 35.650001525878906" height="71.1955970714466" data-palette-color="#454545"><path d="M1.65 0L16.25-35.15 17.2-35.15 31.9 0 28.7 0 23.85-11.35 9.6-11.35 4.85 0 1.65 0ZM22.65-14.15L17.95-25.85Q17.15-27.85 16.7-29.75L16.7-29.75Q16.1-27.4 15.5-25.85L15.5-25.85 10.8-14.15 22.65-14.15ZM38.55 0L38.55-34.2 41.55-34.2 41.55-2.8 58.9-2.8 58.9 0 38.55 0ZM78.7-34.45Q83.4-34.15 87-31.88 90.6-29.6 92.57-25.75 94.55-21.9 94.55-17.05L94.55-17.05Q94.55-11.9 92.4-7.9 90.25-3.9 86.35-1.7 82.45 0.5 77.45 0.5L77.45 0.5 74.6 0.5Q74.2 0.5 72.87 0.5 71.55 0.5 67.9 0.2L67.9 0.2 65.55 0 65.55-34.5 78.7-34.45ZM75.55-2.25Q83.25-2.25 87.4-6.05 91.55-9.85 91.55-16.9L91.55-16.9Q91.55-23.5 88-27.4 84.45-31.3 78.2-31.65L78.2-31.65 68.55-31.65 68.55-2.5 70.4-2.4Q75.35-2.25 75.55-2.25L75.55-2.25ZM114.44 0.5Q110.64 0.5 107.74-1.3 104.84-3.1 103.24-6.25 101.64-9.4 101.64-13.35L101.64-13.35 101.64-34.2 104.64-34.2 104.64-13.35Q104.64-10 105.92-7.5 107.19-5 109.47-3.63 111.74-2.25 114.54-2.25L114.54-2.25Q117.39-2.25 119.64-3.63 121.89-5 123.14-7.53 124.39-10.05 124.39-13.35L124.39-13.35 124.39-34.2 127.39-34.2 127.39-13.35Q127.39-9.2 125.72-6.05 124.04-2.9 121.09-1.2 118.14 0.5 114.44 0.5L114.44 0.5ZM158.14 0.3Q156.69 0.3 155.87-0.48 155.04-1.25 153.79-3.25L153.79-3.25 146.09-15.4 137.24 0 133.69 0 144.14-18.05 133.59-34.2 137.04-34.2 146.14-20.25 155.19-34.2 158.74-34.2 148.04-17.65 157.24-3.25Q157.69-2.55 158.24-2.55L158.24-2.55Q158.74-2.55 159.34-2.85L159.34-2.85 160.44-0.35Q160.34-0.3 159.72 0 159.09 0.3 158.14 0.3L158.14 0.3ZM187.64 0.3Q186.19 0.3 185.36-0.48 184.54-1.25 183.29-3.25L183.29-3.25 175.59-15.4 166.74 0 163.19 0 173.64-18.05 163.09-34.2 166.54-34.2 175.64-20.25 184.69-34.2 188.24-34.2 177.54-17.65 186.74-3.25Q187.19-2.55 187.74-2.55L187.74-2.55Q188.24-2.55 188.84-2.85L188.84-2.85 189.94-0.35Q189.84-0.3 189.21 0 188.59 0.3 187.64 0.3L187.64 0.3ZM197.54 0.2Q196.69 0.2 196.06-0.43 195.44-1.05 195.44-1.9L195.44-1.9Q195.44-2.8 196.06-3.43 196.69-4.05 197.54-4.05L197.54-4.05Q198.44-4.05 199.06-3.43 199.69-2.8 199.69-1.9L199.69-1.9Q199.69-1.05 199.06-0.43 198.44 0.2 197.54 0.2L197.54 0.2ZM197.54-19.5Q196.69-19.5 196.06-20.13 195.44-20.75 195.44-21.6L195.44-21.6Q195.44-22.5 196.06-23.13 196.69-23.75 197.54-23.75L197.54-23.75Q198.44-23.75 199.06-23.13 199.69-22.5 199.69-21.6L199.69-21.6Q199.69-20.75 199.06-20.13 198.44-19.5 197.54-19.5L197.54-19.5Z" opacity="1" transform="matrix(1,0,0,1,0,0)" fill="#ffffff" class="undefined-text-0" data-fill-palette-color="primary" id="text-0"></path></svg></g></svg></g></svg></g></svg></g><g transform="matrix(1,0,0,1,112.28675768909089,0)"><svg viewBox="0 0 170.9464846218182 170.9464846218182" height="170.9464846218182" width="170.9464846218182"><g><svg></svg></g><g id="icon-0"><svg viewBox="0 0 170.9464846218182 170.9464846218182" height="170.9464846218182" width="170.9464846218182"><g><path d="M0 85.473c0-47.206 38.268-85.473 85.473-85.473 47.206 0 85.473 38.268 85.473 85.473 0 47.206-38.268 85.473-85.473 85.473-47.206 0-85.473-38.268-85.473-85.473zM85.473 164.526c43.66 0 79.053-35.393 79.053-79.053 0-43.66-35.393-79.053-79.053-79.053-43.66 0-79.053 35.393-79.053 79.053 0 43.66 35.393 79.053 79.053 79.053z" data-fill-palette-color="accent" fill="#ffffff" stroke="transparent"></path><ellipse rx="84.6185098878" ry="84.6185098878" cx="85.4732423109091" cy="85.4732423109091" fill="#ffffff" stroke="transparent" stroke-width="0" fill-opacity="1" data-fill-palette-color="accent"></ellipse></g><g transform="matrix(1,0,0,1,38.216460399551224,38.216460399551224)"><svg viewBox="0 0 94.51356382271575 94.51356382271575" height="94.51356382271575" width="94.51356382271575"><g><svg xmlns="http://www.w3.org/2000/svg" xmlns:xlink="http://www.w3.org/1999/xlink" version="1.1" x="0" y="0" viewBox="1 1 62 62" style="enable-background:new 0 0 64 64;" xml:space="preserve" height="94.51356382271575" width="94.51356382271575" class="icon-s-0" data-fill-palette-color="quaternary" id="s-0"><g fill="#fbeaab" data-fill-palette-color="quaternary"><path d="M57 25H47c-1.103 0-2 0.897-2 2v22c0 1.103 0.897 2 2 2h10c1.103 0 2-0.897 2-2V27C59 25.897 58.103 25 57 25zM47 49V27h10l0.002 22H47z" fill="#000000" data-fill-palette-color="quaternary"></path><path d="M52 53c-1.654 0-3 1.346-3 3s1.346 3 3 3 3-1.346 3-3S53.654 53 52 53zM52 57c-0.552 0-1-0.448-1-1s0.448-1 1-1 1 0.448 1 1S52.552 57 52 57z" fill="#000000" data-fill-palette-color="quaternary"></path><path d="M1 1v32h26v24h-2v6h14v-6h-2V33h4v27c0 1.654 1.346 3 3 3h16c1.654 0 3-1.346 3-3V32v-8V1H1zM37 61H27v-2h1 1 6 1 1V61zM35 57h-6v-4h4v-2h-4v-2h4v-2h-4v-2h4v-2h-4v-2h4v-2h-4v-2h4v-2h-4v-2h6V57zM37 31H27 3V3h58v18.184C60.686 21.072 60.352 21 60 21h-1V5H5v24h36v2H37zM41 24v3H7V7h50v14H44C42.346 21 41 22.346 41 24zM61 60c0 0.552-0.448 1-1 1H44c-0.552 0-1-0.448-1-1V24c0-0.552 0.448-1 1-1h16c0.552 0 1 0.448 1 1v8V60z" fill="#000000" data-fill-palette-color="quaternary"></path><path d="M34 19c-1.654 0-3 1.346-3 3s1.346 3 3 3 3-1.346 3-3S35.654 19 34 19zM34 23c-0.552 0-1-0.448-1-1s0.448-1 1-1 1 0.448 1 1S34.552 23 34 23z" fill="#000000" data-fill-palette-color="quaternary"></path><path d="M33 14c-3.859 0-7 3.141-7 7h2c0-2.757 2.243-5 5-5V14z" fill="#000000" data-fill-palette-color="quaternary"></path><path d="M33 11V9h-1c-6.617 0-12 5.383-12 12h2c0-5.514 4.486-10 10-10H33z" fill="#000000" data-fill-palette-color="quaternary"></path></g></svg></g></svg></g></svg></g></svg></g><g></g></svg></g></svg></g></svg></g><defs></defs></svg><rect width="395.52" height="247.2" fill="none" stroke="none" visibility="hidden"></rect></g></svg></g></svg>